<svg xmlns="http://www.w3.org/2000/svg" width="1120" height="520" viewBox="0 0 1120 520" role="img" aria-labelledby="title desc">
  <title>Figure 5. Model Performance Summary</title>
  <desc>Values taken from Table 1 in the paper; recreated as a compact bar view.</desc>
  <rect width="1120" height="520" fill="#f7f8fc" rx="24"/>
  <text x="40" y="56" fill="#172033" font-family="Arial, Helvetica, sans-serif" font-size="28" font-weight="700">Figure 5. Model Performance Summary</text>
  <text x="40" y="84" fill="#5b6475" font-family="Arial, Helvetica, sans-serif" font-size="14">Values taken from Table 1 in the paper; recreated as a compact bar view.</text>
  <line x1="120" y1="420" x2="1020" y2="420" stroke="#94a3b8" stroke-width="2"/><line x1="120" y1="120" x2="120" y2="420" stroke="#94a3b8" stroke-width="2"/><line x1="120" y1="420" x2="1020" y2="420" stroke="#d7deea" stroke-width="1"/><text x="90" y="425" text-anchor="end" fill="#5b6475" font-family="Arial, Helvetica, sans-serif" font-size="13">0.0</text><line x1="120" y1="360" x2="1020" y2="360" stroke="#d7deea" stroke-width="1"/><text x="90" y="365" text-anchor="end" fill="#5b6475" font-family="Arial, Helvetica, sans-serif" font-size="13">0.2</text><line x1="120" y1="300" x2="1020" y2="300" stroke="#d7deea" stroke-width="1"/><text x="90" y="305" text-anchor="end" fill="#5b6475" font-family="Arial, Helvetica, sans-serif" font-size="13">0.4</text><line x1="120" y1="240" x2="1020" y2="240" stroke="#d7deea" stroke-width="1"/><text x="90" y="245" text-anchor="end" fill="#5b6475" font-family="Arial, Helvetica, sans-serif" font-size="13">0.6</text><line x1="120" y1="180" x2="1020" y2="180" stroke="#d7deea" stroke-width="1"/><text x="90" y="185" text-anchor="end" fill="#5b6475" font-family="Arial, Helvetica, sans-serif" font-size="13">0.8</text><line x1="120" y1="120" x2="1020" y2="120" stroke="#d7deea" stroke-width="1"/><text x="90" y="125" text-anchor="end" fill="#5b6475" font-family="Arial, Helvetica, sans-serif" font-size="13">1.0</text><rect x="170" y="391.14" width="28" height="28.86" rx="6" fill="#4f7cff"/><rect x="204" y="167.488" width="28" height="252.512" rx="6" fill="#4f7cff" fill-opacity="0.35"/><text x="201" y="448" text-anchor="middle" fill="#172033" font-family="Arial, Helvetica, sans-serif" font-size="12">Logistic Regression</text><rect x="315" y="199.884" width="28" height="220.116" rx="6" fill="#25a55b"/><rect x="349" y="169.568" width="28" height="250.432" rx="6" fill="#25a55b" fill-opacity="0.35"/><text x="346" y="448" text-anchor="middle" fill="#172033" font-family="Arial, Helvetica, sans-serif" font-size="12">Random Forest</text><rect x="460" y="290.36400000000003" width="28" height="129.636" rx="6" fill="#ff9f43"/><rect x="494" y="165.61599999999999" width="28" height="254.38400000000001" rx="6" fill="#ff9f43" fill-opacity="0.35"/><text x="491" y="448" text-anchor="middle" fill="#172033" font-family="Arial, Helvetica, sans-serif" font-size="12">XGBoost</text><rect x="605" y="224.714" width="28" height="195.286" rx="6" fill="#8b5cf6"/><rect x="639" y="168.658" width="28" height="251.342" rx="6" fill="#8b5cf6" fill-opacity="0.35"/><text x="636" y="448" text-anchor="middle" fill="#172033" font-family="Arial, Helvetica, sans-serif" font-size="12">Deep Neural Network</text><rect x="750" y="223.85600000000002" width="28" height="196.14399999999998" rx="6" fill="#21b6a8"/><rect x="784" y="165.772" width="28" height="254.228" rx="6" fill="#21b6a8" fill-opacity="0.35"/><text x="781" y="448" text-anchor="middle" fill="#172033" font-family="Arial, Helvetica, sans-serif" font-size="12">Soft Voting</text><rect x="895" y="211.506" width="28" height="208.494" rx="6" fill="#f26b6b"/><rect x="929" y="408" width="28" height="12" rx="6" fill="#f26b6b" fill-opacity="0.15"/><text x="926" y="448" text-anchor="middle" fill="#172033" font-family="Arial, Helvetica, sans-serif" font-size="12">Hard Voting</text><text x="860" y="118" fill="#4a5568" font-family="Arial, Helvetica, sans-serif" font-size="14">Solid bars: F1-score</text><text x="860" y="140" fill="#4a5568" font-family="Arial, Helvetica, sans-serif" font-size="14">Light bars: AUC-ROC</text><text x="860" y="170" fill="#4a5568" font-family="Arial, Helvetica, sans-serif" font-size="18" font-weight="700">Best practical precision</text><text x="860" y="194" fill="#5b6475" font-family="Arial, Helvetica, sans-serif" font-size="14">Random Forest: precision 0.8791</text><text x="860" y="230" fill="#4a5568" font-family="Arial, Helvetica, sans-serif" font-size="18" font-weight="700">Best threshold-free ranking</text><text x="860" y="254" fill="#5b6475" font-family="Arial, Helvetica, sans-serif" font-size="14">Soft Voting Ensemble: AUC 0.9778</text>
</svg>
