<svg xmlns="http://www.w3.org/2000/svg" width="1120" height="520" viewBox="0 0 1120 520" role="img" aria-labelledby="title desc">
  <title>Figure 8. Precision-Recall Tradeoff</title>
  <desc>Bubble size follows F1-score, matching the interpretation given in the paper.</desc>
  <rect width="1120" height="520" fill="#f7f8fc" rx="24"/>
  <text x="40" y="56" fill="#172033" font-family="Arial, Helvetica, sans-serif" font-size="28" font-weight="700">Figure 8. Precision-Recall Tradeoff</text>
  <text x="40" y="84" fill="#5b6475" font-family="Arial, Helvetica, sans-serif" font-size="14">Bubble size follows F1-score, matching the interpretation given in the paper.</text>
  <line x1="120" y1="420" x2="1020" y2="420" stroke="#94a3b8" stroke-width="2"/><line x1="120" y1="100" x2="120" y2="420" stroke="#94a3b8" stroke-width="2"/><line x1="120" y1="100" x2="120" y2="420" stroke="#d7deea" stroke-width="1"/><line x1="120" y1="420" x2="1020" y2="420" stroke="#d7deea" stroke-width="1"/><line x1="300" y1="100" x2="300" y2="420" stroke="#d7deea" stroke-width="1"/><line x1="120" y1="356" x2="1020" y2="356" stroke="#d7deea" stroke-width="1"/><line x1="480" y1="100" x2="480" y2="420" stroke="#d7deea" stroke-width="1"/><line x1="120" y1="292" x2="1020" y2="292" stroke="#d7deea" stroke-width="1"/><line x1="660" y1="100" x2="660" y2="420" stroke="#d7deea" stroke-width="1"/><line x1="120" y1="228" x2="1020" y2="228" stroke="#d7deea" stroke-width="1"/><line x1="840" y1="100" x2="840" y2="420" stroke="#d7deea" stroke-width="1"/><line x1="120" y1="164" x2="1020" y2="164" stroke="#d7deea" stroke-width="1"/><line x1="1020" y1="100" x2="1020" y2="420" stroke="#d7deea" stroke-width="1"/><line x1="120" y1="100" x2="1020" y2="100" stroke="#d7deea" stroke-width="1"/><text x="570" y="465" text-anchor="middle" fill="#5b6475" font-family="Arial, Helvetica, sans-serif" font-size="18">Precision</text><text x="40" y="260" transform="rotate(-90 40 260)" fill="#5b6475" font-family="Arial, Helvetica, sans-serif" font-size="18">Recall</text><circle cx="173.19" cy="126.11200000000002" r="15.33" fill="#4f7cff" fill-opacity="0.65" stroke="#ffffff" stroke-width="2"/><text x="173.19" y="130.11200000000002" text-anchor="middle" fill="#ffffff" font-family="Arial, Helvetica, sans-serif" font-size="11" font-weight="700">LogReg</text><circle cx="911.1899999999999" cy="158.784" r="37.397999999999996" fill="#25a55b" fill-opacity="0.65" stroke="#ffffff" stroke-width="2"/><text x="911.1899999999999" y="162.784" text-anchor="middle" fill="#ffffff" font-family="Arial, Helvetica, sans-serif" font-size="11" font-weight="700">Random Forest</text><circle cx="433.38" cy="139.168" r="26.958" fill="#ff9f43" fill-opacity="0.65" stroke="#ffffff" stroke-width="2"/><text x="433.38" y="143.168" text-anchor="middle" fill="#ffffff" font-family="Arial, Helvetica, sans-serif" font-size="11" font-weight="700">XGBoost</text><circle cx="727.3199999999999" cy="148.99200000000002" r="34.533" fill="#8b5cf6" fill-opacity="0.65" stroke="#ffffff" stroke-width="2"/><text x="727.3199999999999" y="152.99200000000002" text-anchor="middle" fill="#ffffff" font-family="Arial, Helvetica, sans-serif" font-size="11" font-weight="700">DNN</text><circle cx="715.35" cy="139.168" r="34.632" fill="#21b6a8" fill-opacity="0.65" stroke="#ffffff" stroke-width="2"/><text x="715.35" y="143.168" text-anchor="middle" fill="#ffffff" font-family="Arial, Helvetica, sans-serif" font-size="11" font-weight="700">Soft Voting</text><circle cx="805.3499999999999" cy="148.99200000000002" r="36.057" fill="#f26b6b" fill-opacity="0.65" stroke="#ffffff" stroke-width="2"/><text x="805.3499999999999" y="152.99200000000002" text-anchor="middle" fill="#ffffff" font-family="Arial, Helvetica, sans-serif" font-size="11" font-weight="700">Hard Voting</text>
</svg>
